<svg width="39" height="14" viewBox="0 0 39 14" fill="none" xmlns="http://www.w3.org/2000/svg">
<path d="M5.013 12H3.90558V4.91797C3.90558 4.64909 3.90558 4.41895 3.90558 4.22754C3.91014 4.03158 3.91469 3.85384 3.91925 3.69434C3.92837 3.53027 3.93976 3.36393 3.95343 3.19531C3.81215 3.34115 3.67999 3.46647 3.55695 3.57129C3.4339 3.67155 3.28123 3.79688 3.09894 3.94727L1.95734 4.86328L1.36261 4.09082L4.06964 2.00586H5.013V12ZM15.8236 6.98926C15.8236 7.80046 15.7621 8.52507 15.6391 9.16309C15.516 9.80111 15.3223 10.3411 15.058 10.7832C14.7937 11.2253 14.4519 11.5625 14.0326 11.7949C13.6133 12.0228 13.1098 12.1367 12.5219 12.1367C11.779 12.1367 11.1638 11.9339 10.6762 11.5283C10.1931 11.1227 9.83079 10.5371 9.58925 9.77148C9.35227 9.0013 9.23378 8.07389 9.23378 6.98926C9.23378 5.92285 9.34088 5.00684 9.55507 4.24121C9.77382 3.47103 10.1247 2.88086 10.6078 2.4707C11.0909 2.05599 11.7289 1.84863 12.5219 1.84863C13.2738 1.84863 13.8936 2.05371 14.3812 2.46387C14.8689 2.86947 15.2312 3.45736 15.4682 4.22754C15.7051 4.99316 15.8236 5.91374 15.8236 6.98926ZM10.3754 6.98926C10.3754 7.91895 10.446 8.69368 10.5873 9.31348C10.7286 9.93327 10.9564 10.3981 11.2709 10.708C11.5899 11.0133 12.0069 11.166 12.5219 11.166C13.0368 11.166 13.4516 11.0133 13.766 10.708C14.085 10.4027 14.3152 9.9401 14.4564 9.32031C14.6023 8.70052 14.6752 7.9235 14.6752 6.98926C14.6752 6.07324 14.6046 5.30762 14.4633 4.69238C14.322 4.07259 14.0941 3.60775 13.7797 3.29785C13.4652 2.9834 13.046 2.82617 12.5219 2.82617C11.9978 2.82617 11.5785 2.9834 11.2641 3.29785C10.9496 3.60775 10.7217 4.07259 10.5805 4.69238C10.4437 5.30762 10.3754 6.07324 10.3754 6.98926ZM24.2553 6.98926C24.2553 7.80046 24.1938 8.52507 24.0708 9.16309C23.9477 9.80111 23.754 10.3411 23.4897 10.7832C23.2254 11.2253 22.8836 11.5625 22.4643 11.7949C22.0451 12.0228 21.5415 12.1367 20.9536 12.1367C20.2107 12.1367 19.5955 11.9339 19.1079 11.5283C18.6248 11.1227 18.2625 10.5371 18.021 9.77148C17.784 9.0013 17.6655 8.07389 17.6655 6.98926C17.6655 5.92285 17.7726 5.00684 17.9868 4.24121C18.2055 3.47103 18.5565 2.88086 19.0395 2.4707C19.5226 2.05599 20.1606 1.84863 20.9536 1.84863C21.7055 1.84863 22.3253 2.05371 22.813 2.46387C23.3006 2.86947 23.6629 3.45736 23.8999 4.22754C24.1369 4.99316 24.2553 5.91374 24.2553 6.98926ZM18.8071 6.98926C18.8071 7.91895 18.8777 8.69368 19.019 9.31348C19.1603 9.93327 19.3882 10.3981 19.7026 10.708C20.0216 11.0133 20.4386 11.166 20.9536 11.166C21.4686 11.166 21.8833 11.0133 22.1977 10.708C22.5167 10.4027 22.7469 9.9401 22.8882 9.32031C23.034 8.70052 23.1069 7.9235 23.1069 6.98926C23.1069 6.07324 23.0363 5.30762 22.895 4.69238C22.7537 4.07259 22.5259 3.60775 22.2114 3.29785C21.8969 2.9834 21.4777 2.82617 20.9536 2.82617C20.4295 2.82617 20.0102 2.9834 19.6958 3.29785C19.3813 3.60775 19.1535 4.07259 19.0122 4.69238C18.8755 5.30762 18.8071 6.07324 18.8071 6.98926ZM33.5098 12.14C32.7818 12.14 32.1658 12.042 31.6618 11.846C31.1578 11.65 30.7705 11.3607 30.4998 10.978C30.2385 10.586 30.1078 10.0913 30.1078 9.494C30.1078 9.31667 30.1218 9.14867 30.1498 8.99C30.1778 8.822 30.2152 8.668 30.2618 8.528H29.6038V7.632H30.7798C30.9665 7.44533 31.2138 7.27733 31.5218 7.128C31.8392 6.96933 32.1658 6.82933 32.5018 6.708C32.8472 6.58667 33.1505 6.484 33.4118 6.4C33.6732 6.30667 33.8412 6.24133 33.9158 6.204H29.6038V5.308H34.9518C35.0265 5.17733 35.0778 5.042 35.1058 4.902C35.1432 4.762 35.1618 4.58467 35.1618 4.37C35.1618 4.08067 35.0965 3.83333 34.9658 3.628C34.8352 3.41333 34.6345 3.25 34.3638 3.138C34.0932 3.026 33.7432 2.97 33.3138 2.97C33.0058 2.97 32.7072 2.998 32.4178 3.054C32.1378 3.11 31.8718 3.18467 31.6198 3.278C31.3772 3.362 31.1485 3.45533 30.9338 3.558L30.5838 2.452C30.9385 2.284 31.3725 2.144 31.8858 2.032C32.3992 1.92 32.8985 1.864 33.3838 1.864C34.0185 1.864 34.5598 1.95267 35.0078 2.13C35.4652 2.298 35.8152 2.55467 36.0578 2.9C36.3098 3.24533 36.4358 3.684 36.4358 4.216C36.4358 4.412 36.4218 4.608 36.3938 4.804C36.3658 4.99067 36.3145 5.15867 36.2398 5.308H37.0098V6.204H35.7918C35.6425 6.35333 35.4092 6.50733 35.0918 6.666C34.7745 6.81533 34.4432 6.95533 34.0978 7.086C33.7525 7.21667 33.4398 7.32867 33.1598 7.422C32.8798 7.51533 32.6978 7.58533 32.6138 7.632H37.0098V8.528H31.5638C31.4892 8.668 31.4378 8.79867 31.4098 8.92C31.3818 9.04133 31.3678 9.20933 31.3678 9.424C31.3678 9.788 31.4518 10.0913 31.6198 10.334C31.7878 10.5673 32.0398 10.7447 32.3758 10.866C32.7118 10.9873 33.1272 11.048 33.6218 11.048C34.1538 11.048 34.6672 10.9827 35.1618 10.852C35.6658 10.712 36.0858 10.5673 36.4218 10.418V11.552C36.1045 11.7013 35.6798 11.8367 35.1478 11.958C34.6158 12.0793 34.0698 12.14 33.5098 12.14Z" fill="#505050"/>
</svg>
