<svg width="28" height="12" viewBox="0 0 28 12" fill="none" xmlns="http://www.w3.org/2000/svg">
<path d="M4.013 11H2.90558V3.91797C2.90558 3.64909 2.90558 3.41895 2.90558 3.22754C2.91014 3.03158 2.91469 2.85384 2.91925 2.69434C2.92837 2.53027 2.93976 2.36393 2.95343 2.19531C2.81215 2.34115 2.67999 2.46647 2.55695 2.57129C2.4339 2.67155 2.28123 2.79688 2.09894 2.94727L0.957336 3.86328L0.36261 3.09082L3.06964 1.00586H4.013V11ZM14.7826 5.26465C14.7826 5.87077 14.7393 6.46094 14.6527 7.03516C14.5707 7.60938 14.4271 8.14486 14.2221 8.6416C14.0215 9.13835 13.7481 9.57357 13.4018 9.94727C13.0554 10.321 12.6202 10.6149 12.0961 10.8291C11.5766 11.0387 10.9545 11.1436 10.2299 11.1436C10.0339 11.1436 9.8106 11.1299 9.55995 11.1025C9.3093 11.0798 9.10422 11.0456 8.94472 11V10.0156C9.11334 10.0749 9.31158 10.1227 9.53945 10.1592C9.76731 10.1911 9.99062 10.207 10.2094 10.207C11.0616 10.207 11.7315 10.0247 12.2191 9.66016C12.7068 9.29102 13.0577 8.79199 13.2719 8.16309C13.4861 7.52962 13.6068 6.81868 13.6342 6.03027H13.5521C13.4154 6.24902 13.2354 6.45182 13.0121 6.63867C12.7934 6.82096 12.5268 6.96908 12.2123 7.08301C11.8978 7.19238 11.531 7.24707 11.1117 7.24707C10.5329 7.24707 10.0271 7.12858 9.59413 6.8916C9.16575 6.65462 8.83079 6.31055 8.58925 5.85938C8.35227 5.4082 8.23378 4.86361 8.23378 4.22559C8.23378 3.53743 8.36366 2.94271 8.62343 2.44141C8.88775 1.93555 9.25689 1.5459 9.73085 1.27246C10.2048 0.999023 10.7631 0.862305 11.4057 0.862305C11.8978 0.862305 12.349 0.955729 12.7592 1.14258C13.1693 1.32943 13.5248 1.6097 13.8256 1.9834C14.1309 2.35254 14.3656 2.81055 14.5297 3.35742C14.6983 3.9043 14.7826 4.54004 14.7826 5.26465ZM11.4057 1.82617C10.7995 1.82617 10.3073 2.02441 9.92909 2.4209C9.5554 2.81738 9.36855 3.41439 9.36855 4.21191C9.36855 4.87272 9.53033 5.39453 9.8539 5.77734C10.1775 6.16016 10.6765 6.35156 11.351 6.35156C11.8158 6.35156 12.2169 6.25814 12.5541 6.07129C12.8959 5.88444 13.1579 5.64746 13.3402 5.36035C13.5271 5.07324 13.6205 4.7793 13.6205 4.47852C13.6205 4.17773 13.5749 3.8724 13.4838 3.5625C13.3972 3.2526 13.2628 2.96777 13.0805 2.70801C12.8982 2.44368 12.668 2.23177 12.39 2.07227C12.112 1.9082 11.7839 1.82617 11.4057 1.82617ZM24.0781 11.14C23.3501 11.14 22.7341 11.042 22.2301 10.846C21.7261 10.65 21.3388 10.3607 21.0681 9.978C20.8068 9.586 20.6761 9.09133 20.6761 8.494C20.6761 8.31667 20.6901 8.14867 20.7181 7.99C20.7461 7.822 20.7835 7.668 20.8301 7.528H20.1721V6.632H21.3481C21.5348 6.44533 21.7821 6.27733 22.0901 6.128C22.4075 5.96933 22.7341 5.82933 23.0701 5.708C23.4155 5.58667 23.7188 5.484 23.9801 5.4C24.2415 5.30667 24.4095 5.24133 24.4841 5.204H20.1721V4.308H25.5201C25.5948 4.17733 25.6461 4.042 25.6741 3.902C25.7115 3.762 25.7301 3.58467 25.7301 3.37C25.7301 3.08067 25.6648 2.83333 25.5341 2.628C25.4035 2.41333 25.2028 2.25 24.9321 2.138C24.6615 2.026 24.3115 1.97 23.8821 1.97C23.5741 1.97 23.2755 1.998 22.9861 2.054C22.7061 2.11 22.4401 2.18467 22.1881 2.278C21.9455 2.362 21.7168 2.45533 21.5021 2.558L21.1521 1.452C21.5068 1.284 21.9408 1.144 22.4541 1.032C22.9675 0.92 23.4668 0.863999 23.9521 0.863999C24.5868 0.863999 25.1281 0.952666 25.5761 1.13C26.0335 1.298 26.3835 1.55467 26.6261 1.9C26.8781 2.24533 27.0041 2.684 27.0041 3.216C27.0041 3.412 26.9901 3.608 26.9621 3.804C26.9341 3.99067 26.8828 4.15867 26.8081 4.308H27.5781V5.204H26.3601C26.2108 5.35333 25.9775 5.50733 25.6601 5.666C25.3428 5.81533 25.0115 5.95533 24.6661 6.086C24.3208 6.21667 24.0081 6.32867 23.7281 6.422C23.4481 6.51533 23.2661 6.58533 23.1821 6.632H27.5781V7.528H22.1321C22.0575 7.668 22.0061 7.79867 21.9781 7.92C21.9501 8.04133 21.9361 8.20933 21.9361 8.424C21.9361 8.788 22.0201 9.09133 22.1881 9.334C22.3561 9.56733 22.6081 9.74467 22.9441 9.866C23.2801 9.98733 23.6955 10.048 24.1901 10.048C24.7221 10.048 25.2355 9.98267 25.7301 9.852C26.2341 9.712 26.6541 9.56733 26.9901 9.418V10.552C26.6728 10.7013 26.2481 10.8367 25.7161 10.958C25.1841 11.0793 24.6381 11.14 24.0781 11.14Z" fill="#505050"/>
</svg>
