<svg width="39" height="14" viewBox="0 0 39 14" fill="none" xmlns="http://www.w3.org/2000/svg">
<path d="M7.33722 12H0.788391V11.0498L3.46124 8.33594C3.95799 7.83464 4.37498 7.38802 4.71222 6.99609C5.05402 6.60417 5.31378 6.21908 5.49152 5.84082C5.66925 5.45801 5.75812 5.03874 5.75812 4.58301C5.75812 4.0179 5.5895 3.58724 5.25226 3.29102C4.91958 2.99023 4.4798 2.83984 3.93292 2.83984C3.45441 2.83984 3.03058 2.92188 2.66144 3.08594C2.2923 3.25 1.91404 3.48242 1.52667 3.7832L0.918274 3.01758C1.1826 2.79427 1.46971 2.59603 1.7796 2.42285C2.09406 2.24967 2.42902 2.11296 2.78448 2.0127C3.14451 1.91243 3.52732 1.8623 3.93292 1.8623C4.54816 1.8623 5.07908 1.9694 5.5257 2.18359C5.97231 2.39779 6.31639 2.70312 6.55792 3.09961C6.80402 3.49609 6.92706 3.96777 6.92706 4.51465C6.92706 5.04329 6.82225 5.53548 6.61261 5.99121C6.40297 6.44238 6.10903 6.89128 5.73077 7.33789C5.35252 7.77995 4.91046 8.24935 4.4046 8.74609L2.23077 10.9131V10.9609H7.33722V12ZM13.4447 12H12.3373V4.91797C12.3373 4.64909 12.3373 4.41895 12.3373 4.22754C12.3419 4.03158 12.3464 3.85384 12.351 3.69434C12.3601 3.53027 12.3715 3.36393 12.3851 3.19531C12.2439 3.34115 12.1117 3.46647 11.9887 3.57129C11.8656 3.67155 11.7129 3.79688 11.5307 3.94727L10.3891 4.86328L9.79433 4.09082L12.5014 2.00586H13.4447V12ZM24.2143 6.26465C24.2143 6.87077 24.171 7.46094 24.0844 8.03516C24.0024 8.60938 23.8589 9.14486 23.6538 9.6416C23.4533 10.1383 23.1798 10.5736 22.8335 10.9473C22.4871 11.321 22.0519 11.6149 21.5278 11.8291C21.0083 12.0387 20.3862 12.1436 19.6616 12.1436C19.4656 12.1436 19.2423 12.1299 18.9917 12.1025C18.741 12.0798 18.5359 12.0456 18.3764 12V11.0156C18.5451 11.0749 18.7433 11.1227 18.9712 11.1592C19.199 11.1911 19.4223 11.207 19.6411 11.207C20.4933 11.207 21.1632 11.0247 21.6509 10.6602C22.1385 10.291 22.4894 9.79199 22.7036 9.16309C22.9178 8.52962 23.0385 7.81868 23.0659 7.03027H22.9839C22.8471 7.24902 22.6671 7.45182 22.4438 7.63867C22.2251 7.82096 21.9585 7.96908 21.644 8.08301C21.3296 8.19238 20.9627 8.24707 20.5434 8.24707C19.9647 8.24707 19.4588 8.12858 19.0259 7.8916C18.5975 7.65462 18.2625 7.31055 18.021 6.85938C17.784 6.4082 17.6655 5.86361 17.6655 5.22559C17.6655 4.53743 17.7954 3.94271 18.0551 3.44141C18.3195 2.93555 18.6886 2.5459 19.1626 2.27246C19.6365 1.99902 20.1948 1.8623 20.8374 1.8623C21.3296 1.8623 21.7807 1.95573 22.1909 2.14258C22.601 2.32943 22.9565 2.6097 23.2573 2.9834C23.5626 3.35254 23.7973 3.81055 23.9614 4.35742C24.13 4.9043 24.2143 5.54004 24.2143 6.26465ZM20.8374 2.82617C20.2313 2.82617 19.7391 3.02441 19.3608 3.4209C18.9871 3.81738 18.8003 4.41439 18.8003 5.21191C18.8003 5.87272 18.9621 6.39453 19.2856 6.77734C19.6092 7.16016 20.1082 7.35156 20.7827 7.35156C21.2475 7.35156 21.6486 7.25814 21.9858 7.07129C22.3276 6.88444 22.5897 6.64746 22.7719 6.36035C22.9588 6.07324 23.0522 5.7793 23.0522 5.47852C23.0522 5.17773 23.0066 4.8724 22.9155 4.5625C22.8289 4.2526 22.6945 3.96777 22.5122 3.70801C22.3299 3.44368 22.0997 3.23177 21.8218 3.07227C21.5438 2.9082 21.2156 2.82617 20.8374 2.82617ZM33.5098 12.14C32.7818 12.14 32.1658 12.042 31.6618 11.846C31.1578 11.65 30.7705 11.3607 30.4998 10.978C30.2385 10.586 30.1078 10.0913 30.1078 9.494C30.1078 9.31667 30.1218 9.14867 30.1498 8.99C30.1778 8.822 30.2152 8.668 30.2618 8.528H29.6038V7.632H30.7798C30.9665 7.44533 31.2138 7.27733 31.5218 7.128C31.8392 6.96933 32.1658 6.82933 32.5018 6.708C32.8472 6.58667 33.1505 6.484 33.4118 6.4C33.6732 6.30667 33.8412 6.24133 33.9158 6.204H29.6038V5.308H34.9518C35.0265 5.17733 35.0778 5.042 35.1058 4.902C35.1432 4.762 35.1618 4.58467 35.1618 4.37C35.1618 4.08067 35.0965 3.83333 34.9658 3.628C34.8352 3.41333 34.6345 3.25 34.3638 3.138C34.0932 3.026 33.7432 2.97 33.3138 2.97C33.0058 2.97 32.7072 2.998 32.4178 3.054C32.1378 3.11 31.8718 3.18467 31.6198 3.278C31.3772 3.362 31.1485 3.45533 30.9338 3.558L30.5838 2.452C30.9385 2.284 31.3725 2.144 31.8858 2.032C32.3992 1.92 32.8985 1.864 33.3838 1.864C34.0185 1.864 34.5598 1.95267 35.0078 2.13C35.4652 2.298 35.8152 2.55467 36.0578 2.9C36.3098 3.24533 36.4358 3.684 36.4358 4.216C36.4358 4.412 36.4218 4.608 36.3938 4.804C36.3658 4.99067 36.3145 5.15867 36.2398 5.308H37.0098V6.204H35.7918C35.6425 6.35333 35.4092 6.50733 35.0918 6.666C34.7745 6.81533 34.4432 6.95533 34.0978 7.086C33.7525 7.21667 33.4398 7.32867 33.1598 7.422C32.8798 7.51533 32.6978 7.58533 32.6138 7.632H37.0098V8.528H31.5638C31.4892 8.668 31.4378 8.79867 31.4098 8.92C31.3818 9.04133 31.3678 9.20933 31.3678 9.424C31.3678 9.788 31.4518 10.0913 31.6198 10.334C31.7878 10.5673 32.0398 10.7447 32.3758 10.866C32.7118 10.9873 33.1272 11.048 33.6218 11.048C34.1538 11.048 34.6672 10.9827 35.1618 10.852C35.6658 10.712 36.0858 10.5673 36.4218 10.418V11.552C36.1045 11.7013 35.6798 11.8367 35.1478 11.958C34.6158 12.0793 34.0698 12.14 33.5098 12.14Z" fill="#505050"/>
</svg>
