<svg width="39" height="31" viewBox="0 0 39 31" fill="none" xmlns="http://www.w3.org/2000/svg">
<path d="M7.33722 29H0.788391V28.0498L3.46124 25.3359C3.95799 24.8346 4.37498 24.388 4.71222 23.9961C5.05402 23.6042 5.31378 23.2191 5.49152 22.8408C5.66925 22.458 5.75812 22.0387 5.75812 21.583C5.75812 21.0179 5.5895 20.5872 5.25226 20.291C4.91958 19.9902 4.4798 19.8398 3.93292 19.8398C3.45441 19.8398 3.03058 19.9219 2.66144 20.0859C2.2923 20.25 1.91404 20.4824 1.52667 20.7832L0.918274 20.0176C1.1826 19.7943 1.46971 19.596 1.7796 19.4229C2.09406 19.2497 2.42902 19.113 2.78448 19.0127C3.14451 18.9124 3.52732 18.8623 3.93292 18.8623C4.54816 18.8623 5.07908 18.9694 5.5257 19.1836C5.97231 19.3978 6.31639 19.7031 6.55792 20.0996C6.80402 20.4961 6.92706 20.9678 6.92706 21.5146C6.92706 22.0433 6.82225 22.5355 6.61261 22.9912C6.40297 23.4424 6.10903 23.8913 5.73077 24.3379C5.35252 24.7799 4.91046 25.2493 4.4046 25.7461L2.23077 27.9131V27.9609H7.33722V29ZM15.7826 23.2646C15.7826 23.8708 15.7393 24.4609 15.6527 25.0352C15.5707 25.6094 15.4271 26.1449 15.2221 26.6416C15.0215 27.1383 14.7481 27.5736 14.4018 27.9473C14.0554 28.321 13.6202 28.6149 13.0961 28.8291C12.5766 29.0387 11.9545 29.1436 11.2299 29.1436C11.0339 29.1436 10.8106 29.1299 10.56 29.1025C10.3093 29.0798 10.1042 29.0456 9.94472 29V28.0156C10.1133 28.0749 10.3116 28.1227 10.5394 28.1592C10.7673 28.1911 10.9906 28.207 11.2094 28.207C12.0616 28.207 12.7315 28.0247 13.2191 27.6602C13.7068 27.291 14.0577 26.792 14.2719 26.1631C14.4861 25.5296 14.6068 24.8187 14.6342 24.0303H14.5521C14.4154 24.249 14.2354 24.4518 14.0121 24.6387C13.7934 24.821 13.5268 24.9691 13.2123 25.083C12.8978 25.1924 12.531 25.2471 12.1117 25.2471C11.5329 25.2471 11.0271 25.1286 10.5941 24.8916C10.1657 24.6546 9.83079 24.3105 9.58925 23.8594C9.35227 23.4082 9.23378 22.8636 9.23378 22.2256C9.23378 21.5374 9.36366 20.9427 9.62343 20.4414C9.88775 19.9355 10.2569 19.5459 10.7309 19.2725C11.2048 18.999 11.7631 18.8623 12.4057 18.8623C12.8978 18.8623 13.349 18.9557 13.7592 19.1426C14.1693 19.3294 14.5248 19.6097 14.8256 19.9834C15.1309 20.3525 15.3656 20.8105 15.5297 21.3574C15.6983 21.9043 15.7826 22.54 15.7826 23.2646ZM12.4057 19.8262C11.7995 19.8262 11.3073 20.0244 10.9291 20.4209C10.5554 20.8174 10.3685 21.4144 10.3685 22.2119C10.3685 22.8727 10.5303 23.3945 10.8539 23.7773C11.1775 24.1602 11.6765 24.3516 12.351 24.3516C12.8158 24.3516 13.2169 24.2581 13.5541 24.0713C13.8959 23.8844 14.1579 23.6475 14.3402 23.3604C14.5271 23.0732 14.6205 22.7793 14.6205 22.4785C14.6205 22.1777 14.5749 21.8724 14.4838 21.5625C14.3972 21.2526 14.2628 20.9678 14.0805 20.708C13.8982 20.4437 13.668 20.2318 13.39 20.0723C13.112 19.9082 12.7839 19.8262 12.4057 19.8262ZM25.0781 29.14C24.3501 29.14 23.7341 29.042 23.2301 28.846C22.7261 28.65 22.3388 28.3607 22.0681 27.978C21.8068 27.586 21.6761 27.0913 21.6761 26.494C21.6761 26.3167 21.6901 26.1487 21.7181 25.99C21.7461 25.822 21.7835 25.668 21.8301 25.528H21.1721V24.632H22.3481C22.5348 24.4453 22.7821 24.2773 23.0901 24.128C23.4075 23.9693 23.7341 23.8293 24.0701 23.708C24.4155 23.5867 24.7188 23.484 24.9801 23.4C25.2415 23.3067 25.4095 23.2413 25.4841 23.204H21.1721V22.308H26.5201C26.5948 22.1773 26.6461 22.042 26.6741 21.902C26.7115 21.762 26.7301 21.5847 26.7301 21.37C26.7301 21.0807 26.6648 20.8333 26.5341 20.628C26.4035 20.4133 26.2028 20.25 25.9321 20.138C25.6615 20.026 25.3115 19.97 24.8821 19.97C24.5741 19.97 24.2755 19.998 23.9861 20.054C23.7061 20.11 23.4401 20.1847 23.1881 20.278C22.9455 20.362 22.7168 20.4553 22.5021 20.558L22.1521 19.452C22.5068 19.284 22.9408 19.144 23.4541 19.032C23.9675 18.92 24.4668 18.864 24.9521 18.864C25.5868 18.864 26.1281 18.9527 26.5761 19.13C27.0335 19.298 27.3835 19.5547 27.6261 19.9C27.8781 20.2453 28.0041 20.684 28.0041 21.216C28.0041 21.412 27.9901 21.608 27.9621 21.804C27.9341 21.9907 27.8828 22.1587 27.8081 22.308H28.5781V23.204H27.3601C27.2108 23.3533 26.9775 23.5073 26.6601 23.666C26.3428 23.8153 26.0115 23.9553 25.6661 24.086C25.3208 24.2167 25.0081 24.3287 24.7281 24.422C24.4481 24.5153 24.2661 24.5853 24.1821 24.632H28.5781V25.528H23.1321C23.0575 25.668 23.0061 25.7987 22.9781 25.92C22.9501 26.0413 22.9361 26.2093 22.9361 26.424C22.9361 26.788 23.0201 27.0913 23.1881 27.334C23.3561 27.5673 23.6081 27.7447 23.9441 27.866C24.2801 27.9873 24.6955 28.048 25.1901 28.048C25.7221 28.048 26.2355 27.9827 26.7301 27.852C27.2341 27.712 27.6541 27.5673 27.9901 27.418V28.552C27.6728 28.7013 27.2481 28.8367 26.7161 28.958C26.1841 29.0793 25.6381 29.14 25.0781 29.14Z" fill="#505050"/>
<path d="M7.83624 9.68262H6.33917V12H5.23175V9.68262H0.398743V8.72559L5.15656 1.95117H6.33917V8.65723H7.83624V9.68262ZM5.23175 8.65723V5.38965C5.23175 5.139 5.23403 4.91341 5.23859 4.71289C5.24314 4.50781 5.24998 4.31868 5.25909 4.14551C5.26821 3.96777 5.27504 3.79915 5.2796 3.63965C5.28872 3.48014 5.29555 3.32292 5.30011 3.16797H5.24542C5.15883 3.35026 5.05857 3.54395 4.94464 3.74902C4.83527 3.94954 4.72361 4.12956 4.60968 4.28906L1.52667 8.65723H5.23175ZM15.7826 6.26465C15.7826 6.87077 15.7393 7.46094 15.6527 8.03516C15.5707 8.60938 15.4271 9.14486 15.2221 9.6416C15.0215 10.1383 14.7481 10.5736 14.4018 10.9473C14.0554 11.321 13.6202 11.6149 13.0961 11.8291C12.5766 12.0387 11.9545 12.1436 11.2299 12.1436C11.0339 12.1436 10.8106 12.1299 10.56 12.1025C10.3093 12.0798 10.1042 12.0456 9.94472 12V11.0156C10.1133 11.0749 10.3116 11.1227 10.5394 11.1592C10.7673 11.1911 10.9906 11.207 11.2094 11.207C12.0616 11.207 12.7315 11.0247 13.2191 10.6602C13.7068 10.291 14.0577 9.79199 14.2719 9.16309C14.4861 8.52962 14.6068 7.81868 14.6342 7.03027H14.5521C14.4154 7.24902 14.2354 7.45182 14.0121 7.63867C13.7934 7.82096 13.5268 7.96908 13.2123 8.08301C12.8978 8.19238 12.531 8.24707 12.1117 8.24707C11.5329 8.24707 11.0271 8.12858 10.5941 7.8916C10.1657 7.65462 9.83079 7.31055 9.58925 6.85938C9.35227 6.4082 9.23378 5.86361 9.23378 5.22559C9.23378 4.53743 9.36366 3.94271 9.62343 3.44141C9.88775 2.93555 10.2569 2.5459 10.7309 2.27246C11.2048 1.99902 11.7631 1.8623 12.4057 1.8623C12.8978 1.8623 13.349 1.95573 13.7592 2.14258C14.1693 2.32943 14.5248 2.6097 14.8256 2.9834C15.1309 3.35254 15.3656 3.81055 15.5297 4.35742C15.6983 4.9043 15.7826 5.54004 15.7826 6.26465ZM12.4057 2.82617C11.7995 2.82617 11.3073 3.02441 10.9291 3.4209C10.5554 3.81738 10.3685 4.41439 10.3685 5.21191C10.3685 5.87272 10.5303 6.39453 10.8539 6.77734C11.1775 7.16016 11.6765 7.35156 12.351 7.35156C12.8158 7.35156 13.2169 7.25814 13.5541 7.07129C13.8959 6.88444 14.1579 6.64746 14.3402 6.36035C14.5271 6.07324 14.6205 5.7793 14.6205 5.47852C14.6205 5.17773 14.5749 4.8724 14.4838 4.5625C14.3972 4.2526 14.2628 3.96777 14.0805 3.70801C13.8982 3.44368 13.668 3.23177 13.39 3.07227C13.112 2.9082 12.7839 2.82617 12.4057 2.82617ZM25.0781 12.14C24.3501 12.14 23.7341 12.042 23.2301 11.846C22.7261 11.65 22.3388 11.3607 22.0681 10.978C21.8068 10.586 21.6761 10.0913 21.6761 9.494C21.6761 9.31667 21.6901 9.14867 21.7181 8.99C21.7461 8.822 21.7835 8.668 21.8301 8.528H21.1721V7.632H22.3481C22.5348 7.44533 22.7821 7.27733 23.0901 7.128C23.4075 6.96933 23.7341 6.82933 24.0701 6.708C24.4155 6.58667 24.7188 6.484 24.9801 6.4C25.2415 6.30667 25.4095 6.24133 25.4841 6.204H21.1721V5.308H26.5201C26.5948 5.17733 26.6461 5.042 26.6741 4.902C26.7115 4.762 26.7301 4.58467 26.7301 4.37C26.7301 4.08067 26.6648 3.83333 26.5341 3.628C26.4035 3.41333 26.2028 3.25 25.9321 3.138C25.6615 3.026 25.3115 2.97 24.8821 2.97C24.5741 2.97 24.2755 2.998 23.9861 3.054C23.7061 3.11 23.4401 3.18467 23.1881 3.278C22.9455 3.362 22.7168 3.45533 22.5021 3.558L22.1521 2.452C22.5068 2.284 22.9408 2.144 23.4541 2.032C23.9675 1.92 24.4668 1.864 24.9521 1.864C25.5868 1.864 26.1281 1.95267 26.5761 2.13C27.0335 2.298 27.3835 2.55467 27.6261 2.9C27.8781 3.24533 28.0041 3.684 28.0041 4.216C28.0041 4.412 27.9901 4.608 27.9621 4.804C27.9341 4.99067 27.8828 5.15867 27.8081 5.308H28.5781V6.204H27.3601C27.2108 6.35333 26.9775 6.50733 26.6601 6.666C26.3428 6.81533 26.0115 6.95533 25.6661 7.086C25.3208 7.21667 25.0081 7.32867 24.7281 7.422C24.4481 7.51533 24.2661 7.58533 24.1821 7.632H28.5781V8.528H23.1321C23.0575 8.668 23.0061 8.79867 22.9781 8.92C22.9501 9.04133 22.9361 9.20933 22.9361 9.424C22.9361 9.788 23.0201 10.0913 23.1881 10.334C23.3561 10.5673 23.6081 10.7447 23.9441 10.866C24.2801 10.9873 24.6955 11.048 25.1901 11.048C25.7221 11.048 26.2355 10.9827 26.7301 10.852C27.2341 10.712 27.6541 10.5673 27.9901 10.418V11.552C27.6728 11.7013 27.2481 11.8367 26.7161 11.958C26.1841 12.0793 25.6381 12.14 25.0781 12.14Z" fill="#C1C1C1"/>
<path d="M0.760544 11.9729L37.9018 1.63311" stroke="#C1C1C1"/>
</svg>
