<svg width="29" height="12" viewBox="0 0 29 12" fill="none" xmlns="http://www.w3.org/2000/svg">
<path d="M7.83624 8.68262H6.33917V11H5.23175V8.68262H0.398743V7.72559L5.15656 0.951172H6.33917V7.65723H7.83624V8.68262ZM5.23175 7.65723V4.38965C5.23175 4.139 5.23403 3.91341 5.23859 3.71289C5.24314 3.50781 5.24998 3.31868 5.25909 3.14551C5.26821 2.96777 5.27504 2.79915 5.2796 2.63965C5.28872 2.48014 5.29555 2.32292 5.30011 2.16797H5.24542C5.15883 2.35026 5.05857 2.54395 4.94464 2.74902C4.83527 2.94954 4.72361 3.12956 4.60968 3.28906L1.52667 7.65723H5.23175ZM15.7826 5.26465C15.7826 5.87077 15.7393 6.46094 15.6527 7.03516C15.5707 7.60938 15.4271 8.14486 15.2221 8.6416C15.0215 9.13835 14.7481 9.57357 14.4018 9.94727C14.0554 10.321 13.6202 10.6149 13.0961 10.8291C12.5766 11.0387 11.9545 11.1436 11.2299 11.1436C11.0339 11.1436 10.8106 11.1299 10.56 11.1025C10.3093 11.0798 10.1042 11.0456 9.94472 11V10.0156C10.1133 10.0749 10.3116 10.1227 10.5394 10.1592C10.7673 10.1911 10.9906 10.207 11.2094 10.207C12.0616 10.207 12.7315 10.0247 13.2191 9.66016C13.7068 9.29102 14.0577 8.79199 14.2719 8.16309C14.4861 7.52962 14.6068 6.81868 14.6342 6.03027H14.5521C14.4154 6.24902 14.2354 6.45182 14.0121 6.63867C13.7934 6.82096 13.5268 6.96908 13.2123 7.08301C12.8978 7.19238 12.531 7.24707 12.1117 7.24707C11.5329 7.24707 11.0271 7.12858 10.5941 6.8916C10.1657 6.65462 9.83079 6.31055 9.58925 5.85938C9.35227 5.4082 9.23378 4.86361 9.23378 4.22559C9.23378 3.53743 9.36366 2.94271 9.62343 2.44141C9.88775 1.93555 10.2569 1.5459 10.7309 1.27246C11.2048 0.999023 11.7631 0.862305 12.4057 0.862305C12.8978 0.862305 13.349 0.955729 13.7592 1.14258C14.1693 1.32943 14.5248 1.6097 14.8256 1.9834C15.1309 2.35254 15.3656 2.81055 15.5297 3.35742C15.6983 3.9043 15.7826 4.54004 15.7826 5.26465ZM12.4057 1.82617C11.7995 1.82617 11.3073 2.02441 10.9291 2.4209C10.5554 2.81738 10.3685 3.41439 10.3685 4.21191C10.3685 4.87272 10.5303 5.39453 10.8539 5.77734C11.1775 6.16016 11.6765 6.35156 12.351 6.35156C12.8158 6.35156 13.2169 6.25814 13.5541 6.07129C13.8959 5.88444 14.1579 5.64746 14.3402 5.36035C14.5271 5.07324 14.6205 4.7793 14.6205 4.47852C14.6205 4.17773 14.5749 3.8724 14.4838 3.5625C14.3972 3.2526 14.2628 2.96777 14.0805 2.70801C13.8982 2.44368 13.668 2.23177 13.39 2.07227C13.112 1.9082 12.7839 1.82617 12.4057 1.82617ZM25.0781 11.14C24.3501 11.14 23.7341 11.042 23.2301 10.846C22.7261 10.65 22.3388 10.3607 22.0681 9.978C21.8068 9.586 21.6761 9.09133 21.6761 8.494C21.6761 8.31667 21.6901 8.14867 21.7181 7.99C21.7461 7.822 21.7835 7.668 21.8301 7.528H21.1721V6.632H22.3481C22.5348 6.44533 22.7821 6.27733 23.0901 6.128C23.4075 5.96933 23.7341 5.82933 24.0701 5.708C24.4155 5.58667 24.7188 5.484 24.9801 5.4C25.2415 5.30667 25.4095 5.24133 25.4841 5.204H21.1721V4.308H26.5201C26.5948 4.17733 26.6461 4.042 26.6741 3.902C26.7115 3.762 26.7301 3.58467 26.7301 3.37C26.7301 3.08067 26.6648 2.83333 26.5341 2.628C26.4035 2.41333 26.2028 2.25 25.9321 2.138C25.6615 2.026 25.3115 1.97 24.8821 1.97C24.5741 1.97 24.2755 1.998 23.9861 2.054C23.7061 2.11 23.4401 2.18467 23.1881 2.278C22.9455 2.362 22.7168 2.45533 22.5021 2.558L22.1521 1.452C22.5068 1.284 22.9408 1.144 23.4541 1.032C23.9675 0.92 24.4668 0.863999 24.9521 0.863999C25.5868 0.863999 26.1281 0.952666 26.5761 1.13C27.0335 1.298 27.3835 1.55467 27.6261 1.9C27.8781 2.24533 28.0041 2.684 28.0041 3.216C28.0041 3.412 27.9901 3.608 27.9621 3.804C27.9341 3.99067 27.8828 4.15867 27.8081 4.308H28.5781V5.204H27.3601C27.2108 5.35333 26.9775 5.50733 26.6601 5.666C26.3428 5.81533 26.0115 5.95533 25.6661 6.086C25.3208 6.21667 25.0081 6.32867 24.7281 6.422C24.4481 6.51533 24.2661 6.58533 24.1821 6.632H28.5781V7.528H23.1321C23.0575 7.668 23.0061 7.79867 22.9781 7.92C22.9501 8.04133 22.9361 8.20933 22.9361 8.424C22.9361 8.788 23.0201 9.09133 23.1881 9.334C23.3561 9.56733 23.6081 9.74467 23.9441 9.866C24.2801 9.98733 24.6955 10.048 25.1901 10.048C25.7221 10.048 26.2355 9.98267 26.7301 9.852C27.2341 9.712 27.6541 9.56733 27.9901 9.418V10.552C27.6728 10.7013 27.2481 10.8367 26.7161 10.958C26.1841 11.0793 25.6381 11.14 25.0781 11.14Z" fill="#505050"/>
</svg>
