<svg width="30" height="14" viewBox="0 0 30 14" fill="none" xmlns="http://www.w3.org/2000/svg">
<path d="M0.89093 7.72754C0.89093 7.12598 0.931946 6.53809 1.01398 5.96387C1.10057 5.38965 1.24412 4.85645 1.44464 4.36426C1.64516 3.86751 1.9186 3.43229 2.26495 3.05859C2.61131 2.6849 3.04197 2.39323 3.55695 2.18359C4.07648 1.9694 4.69855 1.8623 5.42316 1.8623C5.62823 1.8623 5.84926 1.8737 6.08624 1.89648C6.32322 1.91471 6.51919 1.94661 6.67413 1.99219V2.96973C6.50551 2.91048 6.31183 2.86719 6.09308 2.83984C5.87889 2.8125 5.66241 2.79883 5.44366 2.79883C4.59601 2.79883 3.92837 2.9834 3.44073 3.35254C2.95766 3.72168 2.60903 4.22298 2.39484 4.85645C2.18064 5.48535 2.0576 6.19401 2.0257 6.98242H2.10089C2.24217 6.75456 2.42218 6.54948 2.64093 6.36719C2.85968 6.18034 3.124 6.03223 3.4339 5.92285C3.74835 5.81348 4.11294 5.75879 4.52765 5.75879C5.11098 5.75879 5.61912 5.87728 6.05206 6.11426C6.48956 6.35124 6.8268 6.69531 7.06378 7.14648C7.30532 7.59766 7.42609 8.14453 7.42609 8.78711C7.42609 9.47526 7.29848 10.07 7.04327 10.5713C6.78807 11.0726 6.42348 11.46 5.94952 11.7334C5.48012 12.0023 4.91958 12.1367 4.26788 12.1367C3.78025 12.1367 3.33136 12.0433 2.9212 11.8564C2.51105 11.6696 2.1533 11.3916 1.84796 11.0225C1.54718 10.6533 1.31248 10.1953 1.14386 9.64844C0.97524 9.09701 0.89093 8.45671 0.89093 7.72754ZM4.25421 11.1797C4.874 11.1797 5.37075 10.9814 5.74445 10.585C6.11814 10.1885 6.30499 9.58919 6.30499 8.78711C6.30499 8.13086 6.13865 7.61133 5.80597 7.22852C5.47329 6.8457 4.97198 6.6543 4.30206 6.6543C3.84633 6.6543 3.44985 6.75 3.11261 6.94141C2.77537 7.12826 2.51333 7.36523 2.32648 7.65234C2.13963 7.93945 2.0462 8.23112 2.0462 8.52734C2.0462 8.82812 2.0895 9.13346 2.17609 9.44336C2.26723 9.75326 2.40395 10.0404 2.58624 10.3047C2.76853 10.569 2.99868 10.7809 3.27667 10.9404C3.55467 11.0999 3.88051 11.1797 4.25421 11.1797ZM15.8236 6.98926C15.8236 7.80046 15.7621 8.52507 15.6391 9.16309C15.516 9.80111 15.3223 10.3411 15.058 10.7832C14.7937 11.2253 14.4519 11.5625 14.0326 11.7949C13.6133 12.0228 13.1098 12.1367 12.5219 12.1367C11.779 12.1367 11.1638 11.9339 10.6762 11.5283C10.1931 11.1227 9.83079 10.5371 9.58925 9.77148C9.35227 9.0013 9.23378 8.07389 9.23378 6.98926C9.23378 5.92285 9.34088 5.00684 9.55507 4.24121C9.77382 3.47103 10.1247 2.88086 10.6078 2.4707C11.0909 2.05599 11.7289 1.84863 12.5219 1.84863C13.2738 1.84863 13.8936 2.05371 14.3812 2.46387C14.8689 2.86947 15.2312 3.45736 15.4682 4.22754C15.7051 4.99316 15.8236 5.91374 15.8236 6.98926ZM10.3754 6.98926C10.3754 7.91895 10.446 8.69368 10.5873 9.31348C10.7286 9.93327 10.9564 10.3981 11.2709 10.708C11.5899 11.0133 12.0069 11.166 12.5219 11.166C13.0368 11.166 13.4516 11.0133 13.766 10.708C14.085 10.4027 14.3152 9.9401 14.4564 9.32031C14.6023 8.70052 14.6752 7.9235 14.6752 6.98926C14.6752 6.07324 14.6046 5.30762 14.4633 4.69238C14.322 4.07259 14.0941 3.60775 13.7797 3.29785C13.4652 2.9834 13.046 2.82617 12.5219 2.82617C11.9978 2.82617 11.5785 2.9834 11.2641 3.29785C10.9496 3.60775 10.7217 4.07259 10.5805 4.69238C10.4437 5.30762 10.3754 6.07324 10.3754 6.98926ZM25.0781 12.14C24.3501 12.14 23.7341 12.042 23.2301 11.846C22.7261 11.65 22.3388 11.3607 22.0681 10.978C21.8068 10.586 21.6761 10.0913 21.6761 9.494C21.6761 9.31667 21.6901 9.14867 21.7181 8.99C21.7461 8.822 21.7835 8.668 21.8301 8.528H21.1721V7.632H22.3481C22.5348 7.44533 22.7821 7.27733 23.0901 7.128C23.4075 6.96933 23.7341 6.82933 24.0701 6.708C24.4155 6.58667 24.7188 6.484 24.9801 6.4C25.2415 6.30667 25.4095 6.24133 25.4841 6.204H21.1721V5.308H26.5201C26.5948 5.17733 26.6461 5.042 26.6741 4.902C26.7115 4.762 26.7301 4.58467 26.7301 4.37C26.7301 4.08067 26.6648 3.83333 26.5341 3.628C26.4035 3.41333 26.2028 3.25 25.9321 3.138C25.6615 3.026 25.3115 2.97 24.8821 2.97C24.5741 2.97 24.2755 2.998 23.9861 3.054C23.7061 3.11 23.4401 3.18467 23.1881 3.278C22.9455 3.362 22.7168 3.45533 22.5021 3.558L22.1521 2.452C22.5068 2.284 22.9408 2.144 23.4541 2.032C23.9675 1.92 24.4668 1.864 24.9521 1.864C25.5868 1.864 26.1281 1.95267 26.5761 2.13C27.0335 2.298 27.3835 2.55467 27.6261 2.9C27.8781 3.24533 28.0041 3.684 28.0041 4.216C28.0041 4.412 27.9901 4.608 27.9621 4.804C27.9341 4.99067 27.8828 5.15867 27.8081 5.308H28.5781V6.204H27.3601C27.2108 6.35333 26.9775 6.50733 26.6601 6.666C26.3428 6.81533 26.0115 6.95533 25.6661 7.086C25.3208 7.21667 25.0081 7.32867 24.7281 7.422C24.4481 7.51533 24.2661 7.58533 24.1821 7.632H28.5781V8.528H23.1321C23.0575 8.668 23.0061 8.79867 22.9781 8.92C22.9501 9.04133 22.9361 9.20933 22.9361 9.424C22.9361 9.788 23.0201 10.0913 23.1881 10.334C23.3561 10.5673 23.6081 10.7447 23.9441 10.866C24.2801 10.9873 24.6955 11.048 25.1901 11.048C25.7221 11.048 26.2355 10.9827 26.7301 10.852C27.2341 10.712 27.6541 10.5673 27.9901 10.418V11.552C27.6728 11.7013 27.2481 11.8367 26.7161 11.958C26.1841 12.0793 25.6381 12.14 25.0781 12.14Z" fill="#505050"/>
</svg>
