<svg width="46" height="31" viewBox="0 0 46 31" fill="none" xmlns="http://www.w3.org/2000/svg">
<path d="M7.35089 23.2646C7.35089 23.8708 7.3076 24.4609 7.22101 25.0352C7.13898 25.6094 6.99542 26.1449 6.79034 26.6416C6.58982 27.1383 6.31639 27.5736 5.97003 27.9473C5.62368 28.321 5.18846 28.6149 4.66437 28.8291C4.14484 29.0387 3.52277 29.1436 2.79816 29.1436C2.60219 29.1436 2.37889 29.1299 2.12823 29.1025C1.87758 29.0798 1.67251 29.0456 1.513 29V28.0156C1.68162 28.0749 1.87986 28.1227 2.10773 28.1592C2.33559 28.1911 2.5589 28.207 2.77765 28.207C3.62986 28.207 4.29978 28.0247 4.78741 27.6602C5.27504 27.291 5.62596 26.792 5.84015 26.1631C6.05434 25.5296 6.17511 24.8187 6.20245 24.0303H6.12042C5.9837 24.249 5.80369 24.4518 5.58038 24.6387C5.36163 24.821 5.09503 24.9691 4.78058 25.083C4.46613 25.1924 4.09926 25.2471 3.67999 25.2471C3.10122 25.2471 2.59536 25.1286 2.16241 24.8916C1.73403 24.6546 1.39907 24.3105 1.15753 23.8594C0.920553 23.4082 0.802063 22.8636 0.802063 22.2256C0.802063 21.5374 0.931946 20.9427 1.19171 20.4414C1.45603 19.9355 1.82517 19.5459 2.29913 19.2725C2.77309 18.999 3.33136 18.8623 3.97394 18.8623C4.46613 18.8623 4.9173 18.9557 5.32745 19.1426C5.73761 19.3294 6.09308 19.6097 6.39386 19.9834C6.6992 20.3525 6.9339 20.8105 7.09796 21.3574C7.26658 21.9043 7.35089 22.54 7.35089 23.2646ZM3.97394 19.8262C3.36782 19.8262 2.87563 20.0244 2.49738 20.4209C2.12368 20.8174 1.93683 21.4144 1.93683 22.2119C1.93683 22.8727 2.09861 23.3945 2.42218 23.7773C2.74575 24.1602 3.24477 24.3516 3.91925 24.3516C4.38409 24.3516 4.78514 24.2581 5.12238 24.0713C5.46417 23.8844 5.72622 23.6475 5.90851 23.3604C6.09536 23.0732 6.18878 22.7793 6.18878 22.4785C6.18878 22.1777 6.14321 21.8724 6.05206 21.5625C5.96547 21.2526 5.83103 20.9678 5.64874 20.708C5.46645 20.4437 5.23631 20.2318 4.95831 20.0723C4.68032 19.9082 4.35219 19.8262 3.97394 19.8262ZM15.7826 23.2646C15.7826 23.8708 15.7393 24.4609 15.6527 25.0352C15.5707 25.6094 15.4271 26.1449 15.2221 26.6416C15.0215 27.1383 14.7481 27.5736 14.4018 27.9473C14.0554 28.321 13.6202 28.6149 13.0961 28.8291C12.5766 29.0387 11.9545 29.1436 11.2299 29.1436C11.0339 29.1436 10.8106 29.1299 10.56 29.1025C10.3093 29.0798 10.1042 29.0456 9.94472 29V28.0156C10.1133 28.0749 10.3116 28.1227 10.5394 28.1592C10.7673 28.1911 10.9906 28.207 11.2094 28.207C12.0616 28.207 12.7315 28.0247 13.2191 27.6602C13.7068 27.291 14.0577 26.792 14.2719 26.1631C14.4861 25.5296 14.6068 24.8187 14.6342 24.0303H14.5521C14.4154 24.249 14.2354 24.4518 14.0121 24.6387C13.7934 24.821 13.5268 24.9691 13.2123 25.083C12.8978 25.1924 12.531 25.2471 12.1117 25.2471C11.5329 25.2471 11.0271 25.1286 10.5941 24.8916C10.1657 24.6546 9.83079 24.3105 9.58925 23.8594C9.35227 23.4082 9.23378 22.8636 9.23378 22.2256C9.23378 21.5374 9.36366 20.9427 9.62343 20.4414C9.88775 19.9355 10.2569 19.5459 10.7309 19.2725C11.2048 18.999 11.7631 18.8623 12.4057 18.8623C12.8978 18.8623 13.349 18.9557 13.7592 19.1426C14.1693 19.3294 14.5248 19.6097 14.8256 19.9834C15.1309 20.3525 15.3656 20.8105 15.5297 21.3574C15.6983 21.9043 15.7826 22.54 15.7826 23.2646ZM12.4057 19.8262C11.7995 19.8262 11.3073 20.0244 10.9291 20.4209C10.5554 20.8174 10.3685 21.4144 10.3685 22.2119C10.3685 22.8727 10.5303 23.3945 10.8539 23.7773C11.1775 24.1602 11.6765 24.3516 12.351 24.3516C12.8158 24.3516 13.2169 24.2581 13.5541 24.0713C13.8959 23.8844 14.1579 23.6475 14.3402 23.3604C14.5271 23.0732 14.6205 22.7793 14.6205 22.4785C14.6205 22.1777 14.5749 21.8724 14.4838 21.5625C14.3972 21.2526 14.2628 20.9678 14.0805 20.708C13.8982 20.4437 13.668 20.2318 13.39 20.0723C13.112 19.9082 12.7839 19.8262 12.4057 19.8262ZM25.0781 29.14C24.3501 29.14 23.7341 29.042 23.2301 28.846C22.7261 28.65 22.3388 28.3607 22.0681 27.978C21.8068 27.586 21.6761 27.0913 21.6761 26.494C21.6761 26.3167 21.6901 26.1487 21.7181 25.99C21.7461 25.822 21.7835 25.668 21.8301 25.528H21.1721V24.632H22.3481C22.5348 24.4453 22.7821 24.2773 23.0901 24.128C23.4075 23.9693 23.7341 23.8293 24.0701 23.708C24.4155 23.5867 24.7188 23.484 24.9801 23.4C25.2415 23.3067 25.4095 23.2413 25.4841 23.204H21.1721V22.308H26.5201C26.5948 22.1773 26.6461 22.042 26.6741 21.902C26.7115 21.762 26.7301 21.5847 26.7301 21.37C26.7301 21.0807 26.6648 20.8333 26.5341 20.628C26.4035 20.4133 26.2028 20.25 25.9321 20.138C25.6615 20.026 25.3115 19.97 24.8821 19.97C24.5741 19.97 24.2755 19.998 23.9861 20.054C23.7061 20.11 23.4401 20.1847 23.1881 20.278C22.9455 20.362 22.7168 20.4553 22.5021 20.558L22.1521 19.452C22.5068 19.284 22.9408 19.144 23.4541 19.032C23.9675 18.92 24.4668 18.864 24.9521 18.864C25.5868 18.864 26.1281 18.9527 26.5761 19.13C27.0335 19.298 27.3835 19.5547 27.6261 19.9C27.8781 20.2453 28.0041 20.684 28.0041 21.216C28.0041 21.412 27.9901 21.608 27.9621 21.804C27.9341 21.9907 27.8828 22.1587 27.8081 22.308H28.5781V23.204H27.3601C27.2108 23.3533 26.9775 23.5073 26.6601 23.666C26.3428 23.8153 26.0115 23.9553 25.6661 24.086C25.3208 24.2167 25.0081 24.3287 24.7281 24.422C24.4481 24.5153 24.2661 24.5853 24.1821 24.632H28.5781V25.528H23.1321C23.0575 25.668 23.0061 25.7987 22.9781 25.92C22.9501 26.0413 22.9361 26.2093 22.9361 26.424C22.9361 26.788 23.0201 27.0913 23.1881 27.334C23.3561 27.5673 23.6081 27.7447 23.9441 27.866C24.2801 27.9873 24.6955 28.048 25.1901 28.048C25.7221 28.048 26.2355 27.9827 26.7301 27.852C27.2341 27.712 27.6541 27.5673 27.9901 27.418V28.552C27.6728 28.7013 27.2481 28.8367 26.7161 28.958C26.1841 29.0793 25.6381 29.14 25.0781 29.14Z" fill="#505050"/>
<path d="M5.013 12H3.90558V4.91797C3.90558 4.64909 3.90558 4.41895 3.90558 4.22754C3.91014 4.03158 3.91469 3.85384 3.91925 3.69434C3.92837 3.53027 3.93976 3.36393 3.95343 3.19531C3.81215 3.34115 3.67999 3.46647 3.55695 3.57129C3.4339 3.67155 3.28123 3.79688 3.09894 3.94727L1.95734 4.86328L1.36261 4.09082L4.06964 2.00586H5.013V12ZM15.7826 6.26465C15.7826 6.87077 15.7393 7.46094 15.6527 8.03516C15.5707 8.60938 15.4271 9.14486 15.2221 9.6416C15.0215 10.1383 14.7481 10.5736 14.4018 10.9473C14.0554 11.321 13.6202 11.6149 13.0961 11.8291C12.5766 12.0387 11.9545 12.1436 11.2299 12.1436C11.0339 12.1436 10.8106 12.1299 10.56 12.1025C10.3093 12.0798 10.1042 12.0456 9.94472 12V11.0156C10.1133 11.0749 10.3116 11.1227 10.5394 11.1592C10.7673 11.1911 10.9906 11.207 11.2094 11.207C12.0616 11.207 12.7315 11.0247 13.2191 10.6602C13.7068 10.291 14.0577 9.79199 14.2719 9.16309C14.4861 8.52962 14.6068 7.81868 14.6342 7.03027H14.5521C14.4154 7.24902 14.2354 7.45182 14.0121 7.63867C13.7934 7.82096 13.5268 7.96908 13.2123 8.08301C12.8978 8.19238 12.531 8.24707 12.1117 8.24707C11.5329 8.24707 11.0271 8.12858 10.5941 7.8916C10.1657 7.65462 9.83079 7.31055 9.58925 6.85938C9.35227 6.4082 9.23378 5.86361 9.23378 5.22559C9.23378 4.53743 9.36366 3.94271 9.62343 3.44141C9.88775 2.93555 10.2569 2.5459 10.7309 2.27246C11.2048 1.99902 11.7631 1.8623 12.4057 1.8623C12.8978 1.8623 13.349 1.95573 13.7592 2.14258C14.1693 2.32943 14.5248 2.6097 14.8256 2.9834C15.1309 3.35254 15.3656 3.81055 15.5297 4.35742C15.6983 4.9043 15.7826 5.54004 15.7826 6.26465ZM12.4057 2.82617C11.7995 2.82617 11.3073 3.02441 10.9291 3.4209C10.5554 3.81738 10.3685 4.41439 10.3685 5.21191C10.3685 5.87272 10.5303 6.39453 10.8539 6.77734C11.1775 7.16016 11.6765 7.35156 12.351 7.35156C12.8158 7.35156 13.2169 7.25814 13.5541 7.07129C13.8959 6.88444 14.1579 6.64746 14.3402 6.36035C14.5271 6.07324 14.6205 5.7793 14.6205 5.47852C14.6205 5.17773 14.5749 4.8724 14.4838 4.5625C14.3972 4.2526 14.2628 3.96777 14.0805 3.70801C13.8982 3.44368 13.668 3.23177 13.39 3.07227C13.112 2.9082 12.7839 2.82617 12.4057 2.82617ZM24.2143 6.26465C24.2143 6.87077 24.171 7.46094 24.0844 8.03516C24.0024 8.60938 23.8589 9.14486 23.6538 9.6416C23.4533 10.1383 23.1798 10.5736 22.8335 10.9473C22.4871 11.321 22.0519 11.6149 21.5278 11.8291C21.0083 12.0387 20.3862 12.1436 19.6616 12.1436C19.4656 12.1436 19.2423 12.1299 18.9917 12.1025C18.741 12.0798 18.5359 12.0456 18.3764 12V11.0156C18.5451 11.0749 18.7433 11.1227 18.9712 11.1592C19.199 11.1911 19.4223 11.207 19.6411 11.207C20.4933 11.207 21.1632 11.0247 21.6509 10.6602C22.1385 10.291 22.4894 9.79199 22.7036 9.16309C22.9178 8.52962 23.0385 7.81868 23.0659 7.03027H22.9839C22.8471 7.24902 22.6671 7.45182 22.4438 7.63867C22.2251 7.82096 21.9585 7.96908 21.644 8.08301C21.3296 8.19238 20.9627 8.24707 20.5434 8.24707C19.9647 8.24707 19.4588 8.12858 19.0259 7.8916C18.5975 7.65462 18.2625 7.31055 18.021 6.85938C17.784 6.4082 17.6655 5.86361 17.6655 5.22559C17.6655 4.53743 17.7954 3.94271 18.0551 3.44141C18.3195 2.93555 18.6886 2.5459 19.1626 2.27246C19.6365 1.99902 20.1948 1.8623 20.8374 1.8623C21.3296 1.8623 21.7807 1.95573 22.1909 2.14258C22.601 2.32943 22.9565 2.6097 23.2573 2.9834C23.5626 3.35254 23.7973 3.81055 23.9614 4.35742C24.13 4.9043 24.2143 5.54004 24.2143 6.26465ZM20.8374 2.82617C20.2313 2.82617 19.7391 3.02441 19.3608 3.4209C18.9871 3.81738 18.8003 4.41439 18.8003 5.21191C18.8003 5.87272 18.9621 6.39453 19.2856 6.77734C19.6092 7.16016 20.1082 7.35156 20.7827 7.35156C21.2475 7.35156 21.6486 7.25814 21.9858 7.07129C22.3276 6.88444 22.5897 6.64746 22.7719 6.36035C22.9588 6.07324 23.0522 5.7793 23.0522 5.47852C23.0522 5.17773 23.0066 4.8724 22.9155 4.5625C22.8289 4.2526 22.6945 3.96777 22.5122 3.70801C22.3299 3.44368 22.0997 3.23177 21.8218 3.07227C21.5438 2.9082 21.2156 2.82617 20.8374 2.82617ZM33.5098 12.14C32.7818 12.14 32.1658 12.042 31.6618 11.846C31.1578 11.65 30.7705 11.3607 30.4998 10.978C30.2385 10.586 30.1078 10.0913 30.1078 9.494C30.1078 9.31667 30.1218 9.14867 30.1498 8.99C30.1778 8.822 30.2152 8.668 30.2618 8.528H29.6038V7.632H30.7798C30.9665 7.44533 31.2138 7.27733 31.5218 7.128C31.8392 6.96933 32.1658 6.82933 32.5018 6.708C32.8472 6.58667 33.1505 6.484 33.4118 6.4C33.6732 6.30667 33.8412 6.24133 33.9158 6.204H29.6038V5.308H34.9518C35.0265 5.17733 35.0778 5.042 35.1058 4.902C35.1432 4.762 35.1618 4.58467 35.1618 4.37C35.1618 4.08067 35.0965 3.83333 34.9658 3.628C34.8352 3.41333 34.6345 3.25 34.3638 3.138C34.0932 3.026 33.7432 2.97 33.3138 2.97C33.0058 2.97 32.7072 2.998 32.4178 3.054C32.1378 3.11 31.8718 3.18467 31.6198 3.278C31.3772 3.362 31.1485 3.45533 30.9338 3.558L30.5838 2.452C30.9385 2.284 31.3725 2.144 31.8858 2.032C32.3992 1.92 32.8985 1.864 33.3838 1.864C34.0185 1.864 34.5598 1.95267 35.0078 2.13C35.4652 2.298 35.8152 2.55467 36.0578 2.9C36.3098 3.24533 36.4358 3.684 36.4358 4.216C36.4358 4.412 36.4218 4.608 36.3938 4.804C36.3658 4.99067 36.3145 5.15867 36.2398 5.308H37.0098V6.204H35.7918C35.6425 6.35333 35.4092 6.50733 35.0918 6.666C34.7745 6.81533 34.4432 6.95533 34.0978 7.086C33.7525 7.21667 33.4398 7.32867 33.1598 7.422C32.8798 7.51533 32.6978 7.58533 32.6138 7.632H37.0098V8.528H31.5638C31.4892 8.668 31.4378 8.79867 31.4098 8.92C31.3818 9.04133 31.3678 9.20933 31.3678 9.424C31.3678 9.788 31.4518 10.0913 31.6198 10.334C31.7878 10.5673 32.0398 10.7447 32.3758 10.866C32.7118 10.9873 33.1272 11.048 33.6218 11.048C34.1538 11.048 34.6672 10.9827 35.1618 10.852C35.6658 10.712 36.0858 10.5673 36.4218 10.418V11.552C36.1045 11.7013 35.6798 11.8367 35.1478 11.958C34.6158 12.0793 34.0698 12.14 33.5098 12.14Z" fill="#C1C1C1"/>
<path d="M1.5 12L45 0.999994" stroke="#C1C1C1"/>
</svg>
