<?xml version="1.0" encoding="utf-8"?><svg viewBox="0 0 33 32" xmlns="http://www.w3.org/2000/svg" xmlns:xlink="http://www.w3.org/1999/xlink"><style>:root>svg{display:none}:root>svg:target{display:block}</style><svg viewBox="0 0 20 32" id="arrow" xmlns="http://www.w3.org/2000/svg"><path d="M18.964 14.985 2.951.392a1.35 1.35 0 0 0-1.903 0 1.335 1.335 0 0 0 0 1.894L16.095 16 1.05 29.714a1.335 1.335 0 0 0 0 1.894 1.35 1.35 0 0 0 1.903 0l16.013-14.593c.28-.279.4-.648.382-1.014a1.33 1.33 0 0 0-.383-1.016Z"/></svg><svg viewBox="0 0 20 32" id="arrow-right" xmlns="http://www.w3.org/2000/svg"><path d="M18.964 14.985 2.951.392a1.35 1.35 0 0 0-1.903 0 1.335 1.335 0 0 0 0 1.894L16.095 16 1.05 29.714a1.335 1.335 0 0 0 0 1.894 1.35 1.35 0 0 0 1.903 0l16.013-14.593c.28-.279.4-.648.382-1.014a1.33 1.33 0 0 0-.383-1.016Z"/></svg><svg viewBox="0 0 32 31" id="cart" xmlns="http://www.w3.org/2000/svg"><path d="M31.798 4.039a.923.923 0 0 0-.721-.347H6.509L5.822.715A.923.923 0 0 0 4.923 0h-4a.923.923 0 0 0 0 1.846H4.19l4.663 20.208c.097.419.47.715.9.715h18.494a.923.923 0 1 0 0-1.846h-17.76l-.71-3.077h18.532c.431 0 .806-.3.9-.72l2.77-12.308a.923.923 0 0 0-.18-.78ZM27.569 16H9.35L6.937 5.538h22.987L27.57 16ZM13.538 24a3.388 3.388 0 0 0-3.384 3.385 3.388 3.388 0 0 0 3.384 3.384 3.388 3.388 0 0 0 3.385-3.384A3.388 3.388 0 0 0 13.538 24Zm0 4.923A1.54 1.54 0 0 1 12 27.385c0-.849.69-1.539 1.538-1.539.849 0 1.539.69 1.539 1.539a1.54 1.54 0 0 1-1.539 1.538ZM24.615 24a3.388 3.388 0 0 0-3.384 3.385 3.388 3.388 0 0 0 3.384 3.384A3.388 3.388 0 0 0 28 27.385 3.388 3.388 0 0 0 24.615 24Zm0 4.923a1.54 1.54 0 0 1-1.538-1.538c0-.849.69-1.539 1.538-1.539.849 0 1.539.69 1.539 1.539a1.54 1.54 0 0 1-1.539 1.538Z"/></svg><svg viewBox="0 0 33 32" id="facebook" xmlns="http://www.w3.org/2000/svg"><g clip-path="url(#da)"><path d="M21.65 5.313h2.901V.225C24.051.156 22.33 0 20.325 0c-4.183 0-7.048 2.65-7.048 7.519V12H8.66v5.688h4.616V32h5.659V17.69h4.429L24.068 12h-5.133V8.083c0-1.644.44-2.77 2.715-2.77Z"/></g><defs><clipPath id="da"><path transform="translate(.469)" d="M0 0h31.778v32H0z"/></clipPath></defs></svg><svg viewBox="0 0 32 29" id="favorite" xmlns="http://www.w3.org/2000/svg"><path d="M29.665 2.777C28.087.987 25.897 0 23.5 0c-3.372 0-5.506 2.014-6.703 3.703-.311.438-.575.878-.797 1.292a12.245 12.245 0 0 0-.797-1.292C14.006 2.013 11.872 0 8.5 0 6.103 0 3.913.986 2.335 2.777.829 4.486 0 6.774 0 9.22c0 2.662 1.04 5.139 3.272 7.793 1.994 2.373 4.864 4.818 8.187 7.65a385.452 385.452 0 0 1 3.883 3.34l.04.035a.935.935 0 0 0 1.236 0l.04-.035c1.364-1.193 2.644-2.284 3.883-3.34 3.323-2.832 6.193-5.277 8.187-7.65C30.96 14.36 32 11.883 32 9.22c0-2.446-.83-4.734-2.335-6.443Zm-10.34 20.46c-1.068.909-2.167 1.845-3.325 2.852-1.158-1.007-2.257-1.943-3.325-2.853-6.503-5.542-10.8-9.203-10.8-14.016 0-1.99.663-3.837 1.866-5.203A6.258 6.258 0 0 1 8.5 1.875c2.57 0 4.232 1.584 5.174 2.912a11.113 11.113 0 0 1 1.435 2.854.937.937 0 0 0 1.782 0c.15-.461.591-1.662 1.436-2.854.94-1.328 2.602-2.912 5.173-2.912 1.851 0 3.541.76 4.759 2.142 1.203 1.366 1.866 3.213 1.866 5.203 0 4.813-4.297 8.474-10.8 14.016Z"/></svg><svg viewBox="0 0 32 23" id="icon-del" xmlns="http://www.w3.org/2000/svg"><path d="m31.917 14.34-1.62-2.479a3.866 3.866 0 0 0-3.25-1.75h-4.19v-2.41a2.671 2.671 0 0 0-2.669-2.668h-7.841A4.986 4.986 0 0 0 7.459.99 4.984 4.984 0 0 0 2.48 5.97c0 1.726.884 3.249 2.222 4.142H.508a.508.508 0 1 0 0 1.016h5.08v1.016H3.554a.508.508 0 0 0 0 1.016h2.032v1.015H.508a.508.508 0 1 0 0 1.016h5.08v2.25a2.548 2.548 0 0 0-1.525 2.328v.502c0 .28.228.508.509.508h4.505a2.811 2.811 0 0 0 2.732 2.173c1.33 0 2.445-.93 2.733-2.173h9.773a2.812 2.812 0 0 0 2.733 2.173c1.329 0 2.444-.93 2.733-2.173h1.711c.28 0 .508-.227.508-.508v-5.654a.508.508 0 0 0-.083-.278ZM3.497 5.97a3.968 3.968 0 0 1 3.962-3.963 3.967 3.967 0 0 1 3.963 3.963 3.967 3.967 0 0 1-3.963 3.963A3.968 3.968 0 0 1 3.496 5.97Zm3.106 9.221H7.62a.508.508 0 1 0 0-1.016H6.603V13.16h3.556a.508.508 0 1 0 0-1.016H6.603v-1.016h6.603a.508.508 0 0 0 0-1.016h-2.99a4.976 4.976 0 0 0 2.218-4.064h7.755c.91 0 1.652.742 1.652 1.653v9.522H6.603v-2.031Zm15.238 4.572H14.59a2.797 2.797 0 0 0-.722-1.524h7.974v1.524ZM6.61 18.239h3.142c-.382.413-.642.94-.721 1.524H5.079a1.532 1.532 0 0 1 1.53-1.524Zm5.2 3.697a1.794 1.794 0 0 1-1.793-1.792c0-.988.805-1.792 1.792-1.792.989 0 1.793.804 1.793 1.792s-.804 1.792-1.793 1.792Zm15.238 0a1.794 1.794 0 0 1-1.792-1.792c0-.988.804-1.792 1.792-1.792s1.792.804 1.792 1.792-.804 1.792-1.792 1.792Zm3.936-2.173h-1.157a2.81 2.81 0 0 0-2.78-2.427 2.81 2.81 0 0 0-2.779 2.427h-1.41v-8.635h4.188c.976 0 1.874.482 2.401 1.288l1.537 2.352v4.995Z"/><path d="M27.878 20.144a.83.83 0 1 1-1.661 0 .83.83 0 0 1 1.662 0ZM12.64 20.144a.83.83 0 1 1-1.661 0 .83.83 0 0 1 1.661 0ZM8.127 5.97V3.748a.508.508 0 1 0-1.016 0v2.056L6.074 7.226a.507.507 0 1 0 .821.598L8.03 6.27a.508.508 0 0 0 .097-.3ZM26.876 11.636h-.971a.508.508 0 0 0-.508.508v3.555c0 .281.227.508.508.508h3.418a.874.874 0 0 0 .764-.44.872.872 0 0 0 .003-.88l-1.187-2.075a2.34 2.34 0 0 0-2.027-1.176Zm-.463 3.556v-2.54h.463c.473 0 .911.254 1.145.664l1.072 1.875h-2.68Z"/></svg><svg viewBox="0 0 23 23" id="icon-tel" xmlns="http://www.w3.org/2000/svg"><path d="m21.463 16.589-3.194-3.196a2.276 2.276 0 0 0-1.617-.662c-.64 0-1.242.252-1.698.708l-1.244 1.243c-.966-.537-2.25-1.275-3.583-2.609-1.332-1.332-2.07-2.612-2.61-3.583l1.244-1.244c.926-.927.945-2.415.043-3.316L5.61.737A2.266 2.266 0 0 0 3.993.072 2.39 2.39 0 0 0 2.324.75C2.05.97.674 2.186.161 4.69c-.718 3.507.932 6.882 5.695 11.648 5.322 5.32 9.865 5.733 11.13 5.733.264 0 .423-.017.465-.021 2.482-.291 3.37-1.393 4.02-2.198.84-1.043.837-2.416-.008-3.264Zm-1.06 2.403c-.61.756-1.186 1.47-3.111 1.697-.001 0-.107.011-.306.011-1.132 0-5.211-.384-10.16-5.331C2.433 10.974.891 7.96 1.504 4.966c.448-2.185 1.635-3.114 1.682-3.15l.04-.03.036-.036a1.03 1.03 0 0 1 .73-.307c.25 0 .479.093.648.263L7.834 4.9c.368.367.348.985-.043 1.377L6.384 7.683l-.023.024c-.367.404-.324.95-.122 1.306.583 1.052 1.382 2.493 2.918 4.03 1.532 1.531 2.97 2.33 4.02 2.911.104.06.321.158.593.158.32 0 .615-.136.832-.383l1.321-1.32c.197-.198.456-.306.728-.306.25 0 .48.093.649.261l3.192 3.193c.405.407.238 1.03-.09 1.435ZM13.388 3.432c1.178.135 2.566.849 3.534 1.818.978.977 1.693 2.379 1.822 3.57a.686.686 0 1 0 1.364-.148c-.164-1.506-1.013-3.189-2.216-4.392-1.192-1.192-2.858-2.04-4.347-2.21a.686.686 0 1 0-.157 1.362ZM12.748 6.304c.637.073 1.519.546 2.096 1.123.583.583 1.056 1.473 1.126 2.117a.686.686 0 1 0 1.363-.147c-.119-1.1-.849-2.269-1.52-2.94-.664-.664-1.821-1.39-2.909-1.516a.685.685 0 1 0-.156 1.363Z"/></svg><svg viewBox="0 0 33 32" id="instagram" xmlns="http://www.w3.org/2000/svg"><g clip-path="url(#ha)"><path d="M16.449 7.784c-4.506 0-8.154 3.677-8.154 8.21 0 4.538 3.652 8.211 8.154 8.211 4.505 0 8.153-3.677 8.153-8.21 0-4.538-3.651-8.211-8.153-8.211Zm0 13.54c-2.925 0-5.293-2.385-5.293-5.33 0-2.943 2.369-5.329 5.293-5.329 2.923 0 5.292 2.386 5.292 5.33.001 2.944-2.367 5.329-5.292 5.329Z"/><path d="M22.995.101c-2.924-.137-10.165-.13-13.091 0-2.572.122-4.84.747-6.669 2.588C.18 5.767.57 9.913.57 15.995c0 6.224-.344 10.274 2.665 13.305 3.068 3.088 7.246 2.684 13.214 2.684 6.122 0 8.235.004 10.4-.84 2.944-1.15 5.166-3.8 5.383-8.559.138-2.945.13-10.236 0-13.182C31.97 3.785 28.976.379 22.995.1Zm4.628 27.163C25.619 29.28 22.84 29.1 16.41 29.1c-6.62 0-9.275.099-11.212-1.857-2.231-2.236-1.827-5.827-1.827-11.27C3.37 8.606 2.62 3.3 9.96 2.922c1.688-.06 2.184-.08 6.43-.08l.06.04c7.056 0 12.592-.744 12.925 6.648.075 1.686.092 2.193.092 6.462 0 6.59.124 9.279-1.845 11.27Z"/><path d="M24.925 9.379a1.912 1.912 0 0 0 1.906-1.92c0-1.059-.853-1.918-1.905-1.918A1.912 1.912 0 0 0 23.02 7.46c0 1.06.853 1.919 1.905 1.919Z"/></g><defs><clipPath id="ha"><path transform="translate(.554)" d="M0 0h31.778v32H0z"/></clipPath></defs></svg><svg viewBox="0 0 33 32" id="telegram" xmlns="http://www.w3.org/2000/svg"><g clip-path="url(#ia)"><path d="m13.328 20.241-.526 7.446c.753 0 1.078-.326 1.469-.716l3.526-3.393 7.306 5.387c1.34.753 2.284.357 2.646-1.24l4.796-22.63.001-.002c.425-1.994-.716-2.774-2.022-2.285L2.334 13.676c-1.924.752-1.895 1.832-.327 2.322l7.207 2.257 16.74-10.548c.788-.526 1.505-.235.916.29L13.328 20.241Z"/></g><defs><clipPath id="ia"><path transform="translate(.86)" d="M0 0h31.778v32H0z"/></clipPath></defs></svg><svg viewBox="0 0 25 32" id="user-link" xmlns="http://www.w3.org/2000/svg"><path d="M22.678 19.943a12.5 12.5 0 0 0-4.085-3.779 9.242 9.242 0 0 0 3.093-6.902C21.686 4.155 17.531 0 12.424 0S3.162 4.155 3.162 9.262a9.242 9.242 0 0 0 3.092 6.902 12.5 12.5 0 0 0-4.085 3.779A12.322 12.322 0 0 0 0 26.936V32h24.848v-5.064c0-2.505-.75-4.923-2.17-6.993ZM5.101 9.263c0-4.039 3.285-7.324 7.323-7.324s7.323 3.285 7.323 7.323-3.285 7.323-7.323 7.323S5.1 13.3 5.1 9.262ZM1.939 30.06v-3.125c0-4.109 2.38-7.794 6.101-9.516a9.205 9.205 0 0 0 4.384 1.104c1.585 0 3.078-.4 4.383-1.104 3.721 1.722 6.101 5.407 6.101 9.516v3.125H1.94Z"/></svg><svg viewBox="0 0 32 32" id="youtube" xmlns="http://www.w3.org/2000/svg"><g clip-path="url(#ka)"><path d="m31.24 7.905.039.262c-.384-1.372-1.42-2.43-2.738-2.816l-.028-.007c-2.478-.677-12.447-.677-12.447-.677s-9.944-.014-12.446.677A4.045 4.045 0 0 0 .862 8.14l-.007.028c-.925 4.868-.932 10.717.041 15.93l-.04-.265c.383 1.372 1.42 2.43 2.737 2.816l.028.007c2.475.678 12.447.678 12.447.678s9.942 0 12.446-.678a4.044 4.044 0 0 0 2.76-2.795l.006-.028c.421-2.264.662-4.87.662-7.53l-.001-.295.001-.307a43.3 43.3 0 0 0-.703-7.795ZM12.885 20.868v-9.724l8.297 4.87-8.297 4.854Z"/></g><defs><clipPath id="ka"><path transform="translate(.164)" d="M0 0h31.778v32H0z"/></clipPath></defs></svg></svg>